<svg width="14" height="14" viewBox="0 0 14 14" fill="none" xmlns="http://www.w3.org/2000/svg">
<path d="M6.01209 0.927074C6.31139 0.00575399 7.61479 0.00575399 7.91419 0.927074L8.80129 3.65735C8.93509 4.06937 9.31909 4.34834 9.75229 4.34834H12.6231C13.5918 4.34834 13.9946 5.58794 13.2109 6.15735L10.8883 7.84482C10.5379 8.09943 10.3912 8.55083 10.5251 8.96283L11.4122 11.6932C11.7115 12.6145 10.657 13.3806 9.87329 12.8112L7.55089 11.1238C7.20039 10.8691 6.72579 10.8691 6.37529 11.1238L4.05289 12.8112C3.26919 13.3806 2.21469 12.6145 2.51399 11.6932L3.40119 8.96283C3.53499 8.55083 3.38839 8.09943 3.03789 7.84482L0.715293 6.15734C-0.0684072 5.58794 0.334394 4.34834 1.30309 4.34834H4.17389C4.60709 4.34834 4.99109 4.06937 5.12499 3.65735L6.01209 0.927074Z" fill="#FFA858"/>
</svg>
